<?xml version="1.0" encoding="UTF-8"?>
<svg version="1.1" xmlns="http://www.w3.org/2000/svg" width="177" height="115">
<path d="M0 0 C0.8310878 -0.00990463 1.6621756 -0.01980927 2.51844788 -0.03001404 C3.88131424 -0.02326157 3.88131424 -0.02326157 5.27171326 -0.01637268 C6.23144547 -0.02323593 7.19117767 -0.03009918 8.17999268 -0.03717041 C11.36232691 -0.05551404 14.5441713 -0.0515877 17.72654724 -0.0459137 C19.9403296 -0.0504742 22.15411053 -0.05577938 24.3678894 -0.0617981 C29.01590205 -0.0707458 33.66374306 -0.0682899 38.31175232 -0.05836487 C44.25110071 -0.04691518 50.18985103 -0.06701703 56.12912083 -0.09628201 C60.70611303 -0.11469182 65.28296348 -0.11434127 69.85998344 -0.10864449 C72.04831209 -0.10849163 74.23665057 -0.1145062 76.42494392 -0.12693596 C79.49793705 -0.14192155 82.56984626 -0.1311104 85.64280701 -0.11402893 C86.53721497 -0.1236969 87.43162292 -0.13336487 88.35313416 -0.14332581 C97.96940753 -0.03217771 105.43225437 3.53542096 112.91014099 9.38768005 C113.10350037 8.82178162 113.29685974 8.25588318 113.49607849 7.6728363 C113.75646912 6.93935974 114.01685974 6.20588318 114.28514099 5.45018005 C114.66799255 4.3538324 114.66799255 4.3538324 115.05857849 3.2353363 C115.91014099 1.38768005 115.91014099 1.38768005 117.91014099 0.38768005 C120.50100637 0.25249636 123.0637808 0.17507464 125.65623474 0.1493988 C126.4231514 0.14132706 127.19006805 0.13325531 127.98022461 0.12493896 C129.60340618 0.11110354 131.22661678 0.10037895 132.84983826 0.09251404 C135.33468907 0.07526994 137.8182198 0.03137839 140.30271912 -0.01271057 C141.8788812 -0.02283491 143.45505459 -0.03135182 145.03123474 -0.0381012 C146.14697121 -0.06436333 146.14697121 -0.06436333 147.2852478 -0.09115601 C149.38841248 -0.08229065 149.38841248 -0.08229065 152.91014099 0.38768005 C155.57439247 3.18416046 156.52921833 5.87412818 157.44407654 9.58006287 C157.70411972 10.61503906 157.9641629 11.65001526 158.23208618 12.71635437 C158.63539909 14.38670746 158.63539909 14.38670746 159.04685974 16.09080505 C159.33116348 17.24256226 159.61546722 18.39431946 159.90838623 19.58097839 C160.5071531 22.01751713 161.10112642 24.45523813 161.69065857 26.89402771 C162.59164736 30.61294078 163.51245696 34.32653907 164.43553162 38.0400238 C165.01551033 40.41082366 165.59432453 42.78190876 166.17185974 45.15330505 C166.58428169 46.81151276 166.58428169 46.81151276 167.0050354 48.5032196 C168.37600382 54.23459214 169.62187628 59.4974001 168.91014099 65.38768005 C166.71141231 68.39367133 165.51649641 69.28991842 161.80540466 69.8882513 C159.96039368 69.88856523 159.96039368 69.88856523 158.07810974 69.8888855 C157.39147751 69.89441989 156.70484528 69.89995429 155.99740601 69.9056564 C153.69711589 69.91926744 151.39791001 69.90429248 149.09764099 69.88938904 C147.448385 69.89317208 145.79913218 69.898672 144.14988708 69.90576172 C139.67052454 69.91973568 135.19154528 69.90853304 130.71220398 69.8920505 C126.02687775 69.87821104 121.34157402 69.88465882 116.65623474 69.88818359 C108.78768224 69.89088659 100.91928221 69.87740242 93.05076599 69.85423279 C83.95072921 69.82762248 74.85094737 69.82587561 65.75088501 69.83762115 C57.00071446 69.84839647 48.25063624 69.8422138 39.50047302 69.82806587 C35.77486492 69.82230393 32.04932432 69.82239038 28.32371521 69.82713127 C23.9373128 69.83189996 19.55118993 69.82180397 15.1648407 69.80017662 C13.55396975 69.79460708 11.94307196 69.79414499 10.3321991 69.79912949 C8.1352122 69.80507555 5.93908191 69.79259137 3.74217224 69.77536011 C2.51216492 69.77293021 1.28215759 69.77050032 0.01487732 69.76799679 C-3.3376381 69.35732819 -4.74982058 68.78929306 -7.08985901 66.38768005 C-7.59106445 63.65538025 -7.59106445 63.65538025 -7.59156799 60.31150818 C-7.60094894 59.06011047 -7.6103299 57.80871277 -7.61999512 56.51939392 C-7.60951709 55.15256569 -7.59814811 53.78574404 -7.58595276 52.41893005 C-7.58610772 51.01792831 -7.58759626 49.61692614 -7.59036255 48.21592712 C-7.59174707 45.28030944 -7.57918068 42.34518002 -7.55641174 39.40965271 C-7.52802615 35.64657727 -7.53076332 31.88431315 -7.54350185 28.12117767 C-7.55045665 25.22836883 -7.5426722 22.33574754 -7.53024483 19.44296265 C-7.52572833 18.05548827 -7.52539527 16.66799378 -7.52931023 15.28051758 C-7.53222012 13.34159531 -7.51356368 11.40267679 -7.49391174 9.46385193 C-7.48580727 7.80863525 -7.48580727 7.80863525 -7.47753906 6.11997986 C-6.81867637 1.47643324 -4.54044756 0.01528766 0 0 Z " fill="#EC6346" transform="translate(8.089859008789063,11.612319946289063)"/>
<path d="M0 0 C0.8310878 -0.00990463 1.6621756 -0.01980927 2.51844788 -0.03001404 C3.88131424 -0.02326157 3.88131424 -0.02326157 5.27171326 -0.01637268 C6.23144547 -0.02323593 7.19117767 -0.03009918 8.17999268 -0.03717041 C11.36232691 -0.05551404 14.5441713 -0.0515877 17.72654724 -0.0459137 C19.9403296 -0.0504742 22.15411053 -0.05577938 24.3678894 -0.0617981 C29.01590205 -0.0707458 33.66374306 -0.0682899 38.31175232 -0.05836487 C44.25110071 -0.04691518 50.18985103 -0.06701703 56.12912083 -0.09628201 C60.70611303 -0.11469182 65.28296348 -0.11434127 69.85998344 -0.10864449 C72.04831209 -0.10849163 74.23665057 -0.1145062 76.42494392 -0.12693596 C79.49793705 -0.14192155 82.56984626 -0.1311104 85.64280701 -0.11402893 C86.53721497 -0.1236969 87.43162292 -0.13336487 88.35313416 -0.14332581 C97.96940753 -0.03217771 105.43225437 3.53542096 112.91014099 9.38768005 C113.10350037 8.82178162 113.29685974 8.25588318 113.49607849 7.6728363 C113.75646912 6.93935974 114.01685974 6.20588318 114.28514099 5.45018005 C114.66799255 4.3538324 114.66799255 4.3538324 115.05857849 3.2353363 C115.91014099 1.38768005 115.91014099 1.38768005 117.91014099 0.38768005 C120.50100637 0.25249636 123.0637808 0.17507464 125.65623474 0.1493988 C126.4231514 0.14132706 127.19006805 0.13325531 127.98022461 0.12493896 C129.60340618 0.11110354 131.22661678 0.10037895 132.84983826 0.09251404 C135.33468907 0.07526994 137.8182198 0.03137839 140.30271912 -0.01271057 C141.8788812 -0.02283491 143.45505459 -0.03135182 145.03123474 -0.0381012 C146.14697121 -0.06436333 146.14697121 -0.06436333 147.2852478 -0.09115601 C149.38841248 -0.08229065 149.38841248 -0.08229065 152.91014099 0.38768005 C155.57439247 3.18416046 156.52921833 5.87412818 157.44407654 9.58006287 C157.70411972 10.61503906 157.9641629 11.65001526 158.23208618 12.71635437 C158.63539909 14.38670746 158.63539909 14.38670746 159.04685974 16.09080505 C159.33116348 17.24256226 159.61546722 18.39431946 159.90838623 19.58097839 C160.5071531 22.01751713 161.10112642 24.45523813 161.69065857 26.89402771 C162.59164736 30.61294078 163.51245696 34.32653907 164.43553162 38.0400238 C165.01551033 40.41082366 165.59432453 42.78190876 166.17185974 45.15330505 C166.58428169 46.81151276 166.58428169 46.81151276 167.0050354 48.5032196 C168.37600382 54.23459214 169.62187628 59.4974001 168.91014099 65.38768005 C166.71141231 68.39367133 165.51649641 69.28991842 161.80540466 69.8882513 C159.96039368 69.88856523 159.96039368 69.88856523 158.07810974 69.8888855 C157.39147751 69.89441989 156.70484528 69.89995429 155.99740601 69.9056564 C153.69711589 69.91926744 151.39791001 69.90429248 149.09764099 69.88938904 C147.448385 69.89317208 145.79913218 69.898672 144.14988708 69.90576172 C139.67052454 69.91973568 135.19154528 69.90853304 130.71220398 69.8920505 C126.02687775 69.87821104 121.34157402 69.88465882 116.65623474 69.88818359 C108.78768224 69.89088659 100.91928221 69.87740242 93.05076599 69.85423279 C83.95072921 69.82762248 74.85094737 69.82587561 65.75088501 69.83762115 C57.00071446 69.84839647 48.25063624 69.8422138 39.50047302 69.82806587 C35.77486492 69.82230393 32.04932432 69.82239038 28.32371521 69.82713127 C23.9373128 69.83189996 19.55118993 69.82180397 15.1648407 69.80017662 C13.55396975 69.79460708 11.94307196 69.79414499 10.3321991 69.79912949 C8.1352122 69.80507555 5.93908191 69.79259137 3.74217224 69.77536011 C2.51216492 69.77293021 1.28215759 69.77050032 0.01487732 69.76799679 C-3.3376381 69.35732819 -4.74982058 68.78929306 -7.08985901 66.38768005 C-7.59106445 63.65538025 -7.59106445 63.65538025 -7.59156799 60.31150818 C-7.60094894 59.06011047 -7.6103299 57.80871277 -7.61999512 56.51939392 C-7.60951709 55.15256569 -7.59814811 53.78574404 -7.58595276 52.41893005 C-7.58610772 51.01792831 -7.58759626 49.61692614 -7.59036255 48.21592712 C-7.59174707 45.28030944 -7.57918068 42.34518002 -7.55641174 39.40965271 C-7.52802615 35.64657727 -7.53076332 31.88431315 -7.54350185 28.12117767 C-7.55045665 25.22836883 -7.5426722 22.33574754 -7.53024483 19.44296265 C-7.52572833 18.05548827 -7.52539527 16.66799378 -7.52931023 15.28051758 C-7.53222012 13.34159531 -7.51356368 11.40267679 -7.49391174 9.46385193 C-7.48580727 7.80863525 -7.48580727 7.80863525 -7.47753906 6.11997986 C-6.81867637 1.47643324 -4.54044756 0.01528766 0 0 Z M-0.08985901 7.38768005 C-0.08985901 25.53768005 -0.08985901 43.68768005 -0.08985901 62.38768005 C15.81538627 62.50415204 15.81538627 62.50415204 31.72068787 62.58299255 C38.21423018 62.60684223 44.70754544 62.63496249 51.20091248 62.68943787 C56.43994309 62.73311174 61.67872999 62.75686256 66.9179287 62.76718903 C68.91008525 62.77454187 70.90222946 62.78889969 72.89428139 62.81060028 C91.71218998 63.07076063 91.71218998 63.07076063 107.57029724 53.75486755 C108.01244568 53.30369568 108.45459412 52.8525238 108.91014099 52.38768005 C109.90014099 51.39768005 109.90014099 51.39768005 110.91014099 50.38768005 C110.58014099 51.43955505 110.25014099 52.49143005 109.91014099 53.57518005 C108.69871375 57.53683536 108.69871375 57.53683536 108.91014099 62.38768005 C126.40014099 62.38768005 143.89014099 62.38768005 161.91014099 62.38768005 C160.56487235 55.66133684 159.15779364 48.99446198 157.56248474 42.3290863 C157.23734642 40.96263222 157.23734642 40.96263222 156.90563965 39.568573 C156.45187557 37.66342238 155.99723092 35.75848128 155.54173279 33.85374451 C154.84376933 30.93398391 154.14922542 28.0134245 153.45506287 25.09275818 C153.01190472 23.23398623 152.56855236 21.37526058 152.12498474 19.5165863 C151.81403114 18.20881981 151.81403114 18.20881981 151.49679565 16.87463379 C151.30311905 16.06626572 151.10944244 15.25789764 150.90989685 14.42503357 C150.74050095 13.71573196 150.57110504 13.00643036 150.39657593 12.27563477 C149.97167418 10.62650312 149.44867388 9.00327871 148.91014099 7.38768005 C139.67014099 7.38768005 130.43014099 7.38768005 120.91014099 7.38768005 C119.67264099 12.46143005 119.67264099 12.46143005 118.41014099 17.63768005 C118.01858826 19.22757751 118.01858826 19.22757751 117.61912537 20.84959412 C117.41609802 21.69231873 117.21307068 22.53504333 117.00389099 23.40330505 C116.79441833 24.26214294 116.58494568 25.12098083 116.36912537 26.00584412 C115.78399387 28.63802704 115.78399387 28.63802704 115.91014099 32.38768005 C115.25014099 32.38768005 114.59014099 32.38768005 113.91014099 32.38768005 C113.99264099 31.56268005 114.07514099 30.73768005 114.16014099 29.88768005 C113.6292034 22.45455381 109.84427458 17.83278292 104.39842224 13.02830505 C96.35990309 7.72818254 89.5418229 6.82673556 79.99998474 6.99705505 C78.7919368 7.00271484 77.58388885 7.00837463 76.3392334 7.01420593 C72.50828713 7.03646653 68.67830113 7.08664631 64.84764099 7.13768005 C62.23893061 7.15775827 59.63020546 7.17600671 57.02146912 7.19236755 C50.6506605 7.23629793 44.28056316 7.30525608 37.91014099 7.38768005 C35.93014099 13.65768005 33.95014099 19.92768005 31.91014099 26.38768005 C29.47264099 17.45018005 29.47264099 17.45018005 28.70921326 14.63011169 C28.50868347 13.90171082 28.30815369 13.17330994 28.10154724 12.4228363 C27.8973114 11.67397156 27.69307556 10.92510681 27.48265076 10.15354919 C27.05622301 8.38224083 27.05622301 8.38224083 25.91014099 7.38768005 C17.33014099 7.38768005 8.75014099 7.38768005 -0.08985901 7.38768005 Z " fill="#010100" transform="translate(8.089859008789063,11.612319946289063)"/>
<path d="M0 0 C8.58 0 17.16 0 26 0 C28.40067833 6.40180888 30.27490897 12.42822465 32 19 C33.98 12.73 35.96 6.46 38 0 C46.58 0 55.16 0 64 0 C64 18.15 64 36.3 64 55 C42.88 55 21.76 55 0 55 C0 36.85 0 18.7 0 0 Z " fill="#FCC804" transform="translate(8,19)"/>
<path d="M0 0 C9.24 0 18.48 0 28 0 C31.07195176 11.57339964 34.10530949 23.13372498 36.75 34.8125 C36.94811279 35.68729004 37.14622559 36.56208008 37.3503418 37.46337891 C38.65434555 43.29546746 39.82744355 49.13721774 41 55 C23.51 55 6.02 55 -12 55 C-11.34544447 49.76355577 -10.70263375 45.41901272 -9.375 40.4375 C-7.13760735 31.83684055 -5.19683072 23.1698452 -3.25 14.5 C-3.08957214 13.78617157 -2.92914429 13.07234314 -2.76385498 12.33688354 C-1.84010409 8.2251347 -0.91966697 4.11266801 0 0 Z " fill="#6DB992" transform="translate(129,19)"/>
<path d="M0 0 C0.99 0 1.98 0 3 0 C3 0.66 3 1.32 3 2 C9.6 2 16.2 2 23 2 C23 4.31 23 6.62 23 9 C22.34 9 21.68 9 21 9 C21 7.35 21 5.7 21 4 C20.34 4 19.68 4 19 4 C19 5.65 19 7.3 19 9 C-3 9 -25 9 -47 9 C-48.125 4.25 -48.125 4.25 -47 2 C-44.69 2 -42.38 2 -40 2 C-40 3.65 -40 5.3 -40 7 C-39.67 5.35 -39.34 3.7 -39 2 C-37.33388095 1.957279 -35.66617115 1.95936168 -34 2 C-33.67 2.33 -33.34 2.66 -33 3 C-32.67 2.67 -32.34 2.34 -32 2 C-30.02206391 1.92717467 -28.04166299 1.9163199 -26.0625 1.9375 C-24.98097656 1.94652344 -23.89945313 1.95554687 -22.78515625 1.96484375 C-21.40650391 1.98224609 -21.40650391 1.98224609 -20 2 C-19.34 2 -18.68 2 -18 2 C-16.33333333 2 -14.66666667 2 -13 2 C-13 2.66 -13 3.32 -13 4 C-13.99 4 -14.98 4 -16 4 C-16 4.99 -16 5.98 -16 7 C-14.68 7 -13.36 7 -12 7 C-12 5.35 -12 3.7 -12 2 C-8.04 2 -4.08 2 0 2 C0 1.34 0 0.68 0 0 Z M-45 4 C-45 4.99 -45 5.98 -45 7 C-44.34 7 -43.68 7 -43 7 C-43 6.01 -43 5.02 -43 4 C-43.66 4 -44.32 4 -45 4 Z M-24 4 C-24 4.99 -24 5.98 -24 7 C-23.34 7 -22.68 7 -22 7 C-22 6.01 -22 5.02 -22 4 C-22.66 4 -23.32 4 -24 4 Z M-6 4 C-6 4.99 -6 5.98 -6 7 C-5.34 7 -4.68 7 -4 7 C-4 6.01 -4 5.02 -4 4 C-4.66 4 -5.32 4 -6 4 Z M3 4 C3 4.99 3 5.98 3 7 C3.66 7 4.32 7 5 7 C5 6.01 5 5.02 5 4 C4.34 4 3.68 4 3 4 Z M11 4 C11 4.99 11 5.98 11 7 C11.66 7 12.32 7 13 7 C13 6.01 13 5.02 13 4 C12.34 4 11.68 4 11 4 Z " fill="#231F20" transform="translate(154,92)"/>
<path d="M0 0 C3.43607209 1.49545648 6.33532209 3.33532209 9 6 C8.9375 8.375 8.9375 8.375 8 11 C3.86900445 14.81322666 1.4218336 16.13361325 -4.125 16.0625 C-5.03507813 16.05347656 -5.94515625 16.04445313 -6.8828125 16.03515625 C-7.93082031 16.01775391 -7.93082031 16.01775391 -9 16 C-8.7215625 15.0409375 -8.7215625 15.0409375 -8.4375 14.0625 C-8.293125 13.381875 -8.14875 12.70125 -8 12 C-8.33 11.67 -8.66 11.34 -9 11 C-9.04063832 9.33382885 -9.042721 7.66611905 -9 6 C-9.66 6 -10.32 6 -11 6 C-11.66 7.32 -12.32 8.64 -13 10 C-13.66 9.67 -14.32 9.34 -15 9 C-12.4121217 2.01272858 -7.17283837 -1.13255343 0 0 Z " fill="#131614" transform="translate(146,43)"/>
<path d="M0 0 C0.99 0 1.98 0 3 0 C3 3.63 3 7.26 3 11 C-3.33333333 11 -9.66666667 11 -16 11 C-16 9.68 -16 8.36 -16 7 C-16.66 7 -17.32 7 -18 7 C-18 8.32 -18 9.64 -18 11 C-18.66 11 -19.32 11 -20 11 C-20 9.68 -20 8.36 -20 7 C-20.66 7 -21.32 7 -22 7 C-22 8.32 -22 9.64 -22 11 C-22.66 11 -23.32 11 -24 11 C-24 8.69 -24 6.38 -24 4 C-16 4 -8 4 0 4 C0 2.68 0 1.36 0 0 Z M-10 6 C-10 6.99 -10 7.98 -10 9 C-9.34 9 -8.68 9 -8 9 C-8.33 8.01 -8.66 7.02 -9 6 C-9.33 6 -9.66 6 -10 6 Z M-2 6 C-2 6.99 -2 7.98 -2 9 C-1.34 9 -0.68 9 0 9 C0 8.01 0 7.02 0 6 C-0.66 6 -1.32 6 -2 6 Z " fill="#231F20" transform="translate(25,90)"/>
<path d="M0 0 C0.99 0 1.98 0 3 0 C4.2109375 1.42578125 4.2109375 1.42578125 5.375 3.3125 C7.88610398 7.04522214 10.34738394 9.13008896 14.69140625 10.5546875 C17.93300699 11.17997089 21.07550483 11.21048509 24.375 11.25 C26.30472656 11.28867188 26.30472656 11.28867188 28.2734375 11.328125 C33.04235462 10.90822035 36.50768552 9.65220531 39.75 6.0625 C40.94983656 4.08276967 42.02527348 2.09941097 43 0 C43.66 0 44.32 0 45 0 C44.62581465 5.23859487 42.87916143 8.53937967 39 12 C31.96384265 16.58879827 22.48084698 16.08773732 14.4609375 14.49609375 C8.76785298 12.57275439 4.54174614 9.20983614 1.125 4.3125 C0 2 0 2 0 0 Z " fill="#110E00" transform="translate(17,55)"/>
<path d="M0 0 C0.66 0 1.32 0 2 0 C2 1.32 2 2.64 2 4 C2.99 4 3.98 4 5 4 C5 4.66 5 5.32 5 6 C5.66 6 6.32 6 7 6 C7 5.34 7 4.68 7 4 C9.97 4 12.94 4 16 4 C16 6.31 16 8.62 16 11 C14.02 11 12.04 11 10 11 C10 10.01 10 9.02 10 8 C9.4225 8.99 8.845 9.98 8.25 11 C7.5075 11.99 6.765 12.98 6 14 C4.68 14 3.36 14 2 14 C2 12 2 12 4 10 C3.67 9.34 3.34 8.68 3 8 C2.67 8.99 2.34 9.98 2 11 C-0.31 11 -2.62 11 -5 11 C-5.625 8.625 -5.625 8.625 -6 6 C-5.34 5.34 -4.68 4.68 -4 4 C-2.68 4 -1.36 4 0 4 C0 2.68 0 1.36 0 0 Z M-2 6 C-2.33 6.99 -2.66 7.98 -3 9 C-2.34 9 -1.68 9 -1 9 C-1.33 8.01 -1.66 7.02 -2 6 Z " fill="#231F20" transform="translate(57,90)"/>
<path d="M0 0 C1.48831242 0.00667405 2.97660807 0.01863442 4.46484375 0.03515625 C5.22345703 0.03966797 5.98207031 0.04417969 6.76367188 0.04882812 C8.64326246 0.06064945 10.52281274 0.07858547 12.40234375 0.09765625 C12.40234375 2.40765625 12.40234375 4.71765625 12.40234375 7.09765625 C9.75644361 7.12450304 7.11081279 7.14441982 4.46484375 7.16015625 C3.33272461 7.17272461 3.33272461 7.17272461 2.17773438 7.18554688 C0.25240062 7.19418066 -1.67301206 7.14989958 -3.59765625 7.09765625 C-4.59765625 6.09765625 -4.59765625 6.09765625 -4.72265625 3.59765625 C-4.52490553 -0.35735814 -4.12100293 0.11186219 0 0 Z M2.40234375 2.09765625 C2.07234375 3.08765625 1.74234375 4.07765625 1.40234375 5.09765625 C2.39234375 4.76765625 3.38234375 4.43765625 4.40234375 4.09765625 C3.74234375 3.43765625 3.08234375 2.77765625 2.40234375 2.09765625 Z M8.40234375 2.09765625 C8.40234375 5.09765625 8.40234375 5.09765625 8.40234375 5.09765625 Z " fill="#231F20" transform="translate(81.59765625,93.90234375)"/>
<path d="M0 0 C3 1 3 1 4.6875 4.1875 C6.95620258 10.88499963 7.36293324 18.95250128 5.09765625 25.6796875 C4 27.875 4 27.875 2 31 C1.01 31 0.02 31 -1 31 C-0.71125 30.29875 -0.4225 29.5975 -0.125 28.875 C0.24625 27.92625 0.6175 26.9775 1 26 C1.37125 25.113125 1.7425 24.22625 2.125 23.3125 C4.10754531 15.8071499 3.36951873 9.87943407 0 3 C0 2.01 0 1.02 0 0 Z " fill="#0A0403" transform="translate(99,32)"/>
<path d="M0 0 C0.99 0 1.98 0 3 0 C4.37912942 1.62381367 5.4066347 3.36382569 6.5234375 5.17578125 C9.84390147 9.27804758 13.64002342 10.34882145 18.77148438 10.97460938 C19.44501953 11.04486328 20.11855469 11.11511719 20.8125 11.1875 C21.85180664 11.3102832 21.85180664 11.3102832 22.91210938 11.43554688 C24.60686984 11.63424293 26.30330194 11.81859203 28 12 C28 12.33 28 12.66 28 13 C26.39125 13.2165625 26.39125 13.2165625 24.75 13.4375 C21.26149431 13.86770223 21.26149431 13.86770223 19.0078125 14.60546875 C14.81304967 15.42973148 10.71260168 13.11874651 7.25390625 10.859375 C4.02914264 8.31816477 1.79239877 5.68437524 0 2 C0 1.34 0 0.68 0 0 Z " fill="#1D1700" transform="translate(17,55)"/>
<path d="M0 0 C0.99 0 1.98 0 3 0 C7.25210603 5.88753142 7.64122351 11.92364051 7 19 C5.75 22.0625 5.75 22.0625 4 24 C1.8125 24.8125 1.8125 24.8125 0 25 C0 24.01 0 23.02 0 22 C0.48726563 21.55269531 0.97453125 21.10539062 1.4765625 20.64453125 C4.12736702 17.78302175 3.39320739 14.45221027 3.3046875 10.734375 C2.926275 7.33836541 1.78140397 4.89478145 0 2 C0 1.34 0 0.68 0 0 Z " fill="#210E0A" transform="translate(91,35)"/>
<path d="M0 0 C3.96 0 7.92 0 12 0 C12 2.31 12 4.62 12 7 C9.69 7 7.38 7 5 7 C4.34 5.68 3.68 4.36 3 3 C2.67 4.32 2.34 5.64 2 7 C1.34 7 0.68 7 0 7 C0 4.69 0 2.38 0 0 Z M8 2 C7.67 2.99 7.34 3.98 7 5 C7.66 5 8.32 5 9 5 C8.67 4.01 8.34 3.02 8 2 Z " fill="#231F20" transform="translate(29,94)"/>
<path d="M0 0 C2.27029534 0.39143023 3.83408198 0.88741278 5.75 2.1875 C7.63276496 4.91750919 7.46226472 6.76414698 7 10 C5.1875 12.375 5.1875 12.375 3 14 C2.01 14 1.02 14 0 14 C0 13.34 0 12.68 0 12 C2 10.375 2 10.375 4 9 C3.72965366 6.56282742 3.72965366 6.56282742 3 4 C2.01 3.34 1.02 2.68 0 2 C0 1.34 0 0.68 0 0 Z " fill="#0D0503" transform="translate(84,41)"/>
<path d="M0 0 C1.4540625 0.0309375 1.4540625 0.0309375 2.9375 0.0625 C2.9375 2.3725 2.9375 4.6825 2.9375 7.0625 C0.6275 7.0625 -1.6825 7.0625 -4.0625 7.0625 C-4.10504356 5.06295254 -4.10330783 3.06208364 -4.0625 1.0625 C-3.0625 0.0625 -3.0625 0.0625 0 0 Z M-1.0625 2.0625 C-1.0625 3.0525 -1.0625 4.0425 -1.0625 5.0625 C-0.4025 4.4025 0.2575 3.7425 0.9375 3.0625 C0.2775 2.7325 -0.3825 2.4025 -1.0625 2.0625 Z " fill="#231F20" transform="translate(99.0625,93.9375)"/>
<path d="M0 0 C0.66 0 1.32 0 2 0 C1.59724236 5.63860699 -0.16478314 8.07346846 -4 12 C-4.99 12.33 -5.98 12.66 -7 13 C-5.74136239 9.514542 -4.25920421 6.91813877 -2 4 C-1.30419733 2.68163705 -0.62775567 1.35208914 0 0 Z " fill="#1E1800" transform="translate(60,55)"/>
<path d="M0 0 C1.65 0 3.3 0 5 0 C6.04449911 3.13349732 5.93423645 3.98968256 5 7 C3.35 7 1.7 7 0 7 C0 4.69 0 2.38 0 0 Z " fill="#231F20" transform="translate(42,94)"/>
<path d="M0 0 C0.66 0 1.32 0 2 0 C2.66 2.31 3.32 4.62 4 7 C3.34 7 2.68 7 2 7 C1.67 7.66 1.34 8.32 1 9 C-0.65 7.68 -2.3 6.36 -4 5 C-3.67 4.01 -3.34 3.02 -3 2 C-2.34 2 -1.68 2 -1 2 C-0.67 1.34 -0.34 0.68 0 0 Z " fill="#5C5D5C" transform="translate(135,49)"/>
<path d="M0 0 C3.0390625 0.0234375 3.0390625 0.0234375 6.625 0.375 C7.81351563 0.48585938 9.00203125 0.59671875 10.2265625 0.7109375 C11.14179687 0.80632812 12.05703125 0.90171875 13 1 C13 1.33 13 1.66 13 2 C11.9275 2.144375 10.855 2.28875 9.75 2.4375 C6.22497933 2.86720253 6.22497933 2.86720253 3.8125 3.6875 C1.34204211 4.11344102 0.09426778 3.27151973 -2 2 C-1.34 1.34 -0.68 0.68 0 0 Z " fill="#463701" transform="translate(32,66)"/>
<path d="M0 0 C0.6875 1.6875 0.6875 1.6875 1 4 C-0.25 6.75 -0.25 6.75 -2 9 C-2.99 9 -3.98 9 -5 9 C-3.7508258 5.54074837 -2.32472205 2.85306797 0 0 Z " fill="#1A0B08" transform="translate(103,54)"/>
<path d="M0 0 C0.66 0 1.32 0 2 0 C2 3.63 2 7.26 2 11 C1.34 11 0.68 11 0 11 C0 7.37 0 3.74 0 0 Z " fill="#231F20" transform="translate(74,90)"/>
<path d="M0 0 C0.99 0.33 1.98 0.66 3 1 C4.1875 4.0625 4.1875 4.0625 5 7 C4.01 7 3.02 7 2 7 C0.5393715 4.35261084 0 3.10551666 0 0 Z " fill="#160906" transform="translate(99,32)"/>
<path d="M0 0 C1.9375 0.75 1.9375 0.75 4 2 C4.75 4.125 4.75 4.125 5 6 C3.0625 5.25 3.0625 5.25 1 4 C0.25 1.875 0.25 1.875 0 0 Z " fill="#121F18" transform="translate(128,40)"/>
<path d="M0 0 C-0.33 1.32 -0.66 2.64 -1 4 C-2.65 4.33 -4.3 4.66 -6 5 C-6 4.34 -6 3.68 -6 3 C-2.53846154 0 -2.53846154 0 0 0 Z " fill="#1C0B08" transform="translate(90,50)"/>
<path d="M0 0 C0.99 0.33 1.98 0.66 3 1 C2.67 1.66 2.34 2.32 2 3 C1.34 3 0.68 3 0 3 C0 2.01 0 1.02 0 0 Z " fill="#231F20" transform="translate(159,90)"/>
<path d="M0 0 C0.99 0.33 1.98 0.66 3 1 C2.67 1.66 2.34 2.32 2 3 C1.34 3 0.68 3 0 3 C0 2.01 0 1.02 0 0 Z " fill="#231F20" transform="translate(142,90)"/>
<path d="M0 0 C0.66 0 1.32 0 2 0 C2 0.99 2 1.98 2 3 C1.01 2.67 0.02 2.34 -1 2 C-0.67 1.34 -0.34 0.68 0 0 Z " fill="#231F20" transform="translate(92,90)"/>
</svg>
